<svg id="continuous-integration-and-delivery_-_REMAKE_IN_QUARTZ_COLORS_icon_origin_uncertain_" data-name="continuous-integration-and-delivery - REMAKE IN QUARTZ COLORS (icon origin uncertain)" xmlns="http://www.w3.org/2000/svg" viewBox="0 0 56 56"><defs><style>.cls-1{fill:#074d92;}.cls-2{fill:#0a6ed1;}.cls-3{fill:#053b70;}</style></defs><path class="cls-1" d="M28,6A22,22,0,1,1,6,28,22.025,22.025,0,0,1,28,6m0-2A24,24,0,1,0,52,28,24,24,0,0,0,28,4Z"/><path class="cls-2" d="M39.5,28a11.252,11.252,0,0,1-3.865,8.479,1.755,1.755,0,0,0-.21-.524,2.069,2.069,0,0,0-.7-.734A9.758,9.758,0,0,0,37.942,28a9.616,9.616,0,0,0-1.393-5l1.333-.809A11.188,11.188,0,0,1,39.5,28Z"/><path class="cls-2" d="M28.444,39.266h-.21a11.271,11.271,0,0,1-11.056-9.109,1.807,1.807,0,0,0,.569.09,2.021,2.021,0,0,0,.989-.239,9.733,9.733,0,0,0,9.5,7.7h.18Z"/><path class="cls-2" d="M31.89,17.348a2.065,2.065,0,0,0-.36.45,2.137,2.137,0,0,0-.285.974A9.705,9.705,0,0,0,19.74,23.3l-1.364-.749a11.249,11.249,0,0,1,13.514-5.2Z"/><path class="cls-3" d="M17.747,25.753A2.244,2.244,0,0,0,15.5,28a2.2,2.2,0,0,0,1.678,2.157,1.807,1.807,0,0,0,.569.09,2.021,2.021,0,0,0,.989-.239A2.221,2.221,0,0,0,19.994,28,2.244,2.244,0,0,0,17.747,25.753Zm.809,3.011a1.088,1.088,0,0,1-1.543.075A1.09,1.09,0,0,1,16.624,28a1.124,1.124,0,1,1,2.247,0A1.074,1.074,0,0,1,18.556,28.764Z"/><path class="cls-3" d="M35.635,36.479a1.755,1.755,0,0,0-.21-.524,2.069,2.069,0,0,0-.7-.734,2.146,2.146,0,0,0-1.243-.39,2.336,2.336,0,0,0-1.124.3,2.248,2.248,0,0,0,1.124,4.2,2.177,2.177,0,0,0,1.123-.3A2.234,2.234,0,0,0,35.635,36.479Zm-1.064.824a1.122,1.122,0,0,1-2.067.345,1.13,1.13,0,0,1,.419-1.543,1.181,1.181,0,0,1,.555-.15.761.761,0,0,1,.254.045,1.072,1.072,0,0,1,.719.524A1.036,1.036,0,0,1,34.571,37.3Z"/><path class="cls-3" d="M34.6,16.974a2.225,2.225,0,0,0-2.711.374,2.065,2.065,0,0,0-.36.45,2.137,2.137,0,0,0-.285.974,2.246,2.246,0,0,0,1.109,2.1,2.336,2.336,0,0,0,1.124.3A2.248,2.248,0,0,0,34.6,16.974Zm-.15,2.5a1.126,1.126,0,0,1-.973.569,1.181,1.181,0,0,1-.555-.15,1.115,1.115,0,0,1-.509-.659,1.03,1.03,0,0,1,.09-.884,1.04,1.04,0,0,1,.629-.494.88.88,0,0,1,.345-.06,1.115,1.115,0,0,1,.973,1.678Z"/></svg>