<svg xmlns="http://www.w3.org/2000/svg" viewBox="0 0 36 48"><defs><style>.cls-1{fill:#595959;}</style></defs><title>map</title><g id="Layer_2" data-name="Layer 2"><g id="map"><path class="cls-1" d="M19.875.094A16.447,16.447,0,0,1,26.2,1.922,18.856,18.856,0,0,1,31.36,5.859a17.351,17.351,0,0,1,3.422,5.532A18.14,18.14,0,0,1,36,18a9.992,9.992,0,0,1-.75,3.328,34.7,34.7,0,0,1-2.015,4.36q-1.266,2.343-2.86,4.874t-3.281,5.063Q23.157,41.439,18.188,48q-5.157-6.468-9.094-12.281Q7.407,33.282,5.766,30.7T2.859,25.734A44.124,44.124,0,0,1,.8,21.328,9.5,9.5,0,0,1,0,18a17.672,17.672,0,0,1,1.406-7.031,17.907,17.907,0,0,1,9.563-9.563A17.665,17.665,0,0,1,18,0h1.031A4.4,4.4,0,0,1,19.875.094ZM18.188,43.031Q21,39.188,23.672,35.3t4.735-7.313q2.061-3.42,3.328-6.046A10.327,10.327,0,0,0,33,18a14.62,14.62,0,0,0-1.031-5.484,15.713,15.713,0,0,0-2.812-4.594,15.222,15.222,0,0,0-4.219-3.328A14.016,14.016,0,0,0,19.594,3H17.906a14.2,14.2,0,0,0-5.765,1.172A15.378,15.378,0,0,0,7.406,7.406a15.214,15.214,0,0,0-3.234,4.782A14.515,14.515,0,0,0,3,18a10.8,10.8,0,0,0,1.406,4.219A71.833,71.833,0,0,0,8.016,28.5q2.2,3.468,4.875,7.312T18.188,43.031ZM18,9a8.963,8.963,0,0,1,9,9,8.963,8.963,0,0,1-9,9,8.963,8.963,0,0,1-9-9,8.963,8.963,0,0,1,9-9Zm0,15a5.721,5.721,0,0,0,4.266-1.781A5.842,5.842,0,0,0,24,18a5.922,5.922,0,0,0-6-6,5.846,5.846,0,0,0-4.219,1.734,5.943,5.943,0,0,0,0,8.485A5.762,5.762,0,0,0,18,24Z"/></g></g></svg>