<svg id="omnichannel-promotion-pricing-service" xmlns="http://www.w3.org/2000/svg" viewBox="0 0 56 56"><defs><style>.cls-1{fill:#074d92;}.cls-2{fill:#0a6ed1;}.cls-3{fill:#053b70;}</style></defs><title>omnichannel-promotion-pricing-service_circle</title><path class="cls-1" d="M28,6A22,22,0,1,1,6,28,22.025,22.025,0,0,1,28,6m0-2A24,24,0,1,0,52,28,24,24,0,0,0,28,4Z"/><path class="cls-2" d="M24.2,32.532a2.125,2.125,0,0,0-.785,1.458,1.734,1.734,0,0,0,.561,1.189,1.625,1.625,0,0,0,1.166.538,2.224,2.224,0,0,0,1.436-.807q1.346-1.346.135-2.557Q25.547,31.186,24.2,32.532Zm1.526,1.525c-.449.449-.735.673-.853.673a.426.426,0,0,1-.4-.134.436.436,0,0,1-.09-.4,2.109,2.109,0,0,1,.628-.852q.807-.809,1.166-.449C26.414,33.129,26.266,33.519,25.728,34.057Z"/><path class="cls-2" d="M24.023,29.033a2.222,2.222,0,0,0,1.435-.807q1.347-1.345.135-2.557-1.167-1.167-2.512.179a2.121,2.121,0,0,0-.785,1.458,1.734,1.734,0,0,0,.561,1.189A1.622,1.622,0,0,0,24.023,29.033Zm-.135-2.377q.808-.808,1.167-.449t-.449,1.167c-.449.448-.734.672-.852.672a.427.427,0,0,1-.4-.134.436.436,0,0,1-.09-.4A2.12,2.12,0,0,1,23.888,26.656Z"/><polygon class="cls-2" points="28.688 28.764 20.12 31.231 20.883 31.994 29.406 29.482 28.688 28.764"/><path class="cls-3" d="M36.045,15.04a3.58,3.58,0,0,0-3.317,1.247,5.671,5.671,0,0,0-.429.6c-.042,0-.079-.024-.121-.024h0l-3.721,0a1.859,1.859,0,0,0-1.313.543l-12.6,12.566a1.85,1.85,0,0,0,0,2.62l7.889,7.868a1.86,1.86,0,0,0,2.627,0l12.6-12.566a1.849,1.849,0,0,0,.544-1.309l0-3.712a1.854,1.854,0,0,0-.544-1.311l-4.124-4.113c.068-.092.126-.2.2-.281a2.234,2.234,0,0,1,2.12-.8c2.862.4,2.8,3.969,2.774,4.123a.67.67,0,0,0,1.327.184C40.209,18.9,39.388,15.5,36.045,15.04Zm-5.2,7.532a4.6,4.6,0,0,0,.129.947.67.67,0,0,0,1.29-.363,3.542,3.542,0,0,1-.092-.747,1.093,1.093,0,0,1,.28.186,1.159,1.159,0,1,1-1.641,0C30.822,22.585,30.836,22.582,30.846,22.572Zm5.5.3V26.58l-12.6,12.566L15.859,31.28l12.6-12.566h2.962a11.217,11.217,0,0,0-.522,2.295,2.506,2.506,0,0,0-1.073.6,2.554,2.554,0,1,0,3.616,0,2.491,2.491,0,0,0-1.192-.625,9.82,9.82,0,0,1,.412-1.791Z"/></svg>